<?xml version="1.0" encoding="UTF-8"?>
<svg version="1.1" xmlns="http://www.w3.org/2000/svg" width="500" height="500">
<path d="M0 0 C1.08877945 0.0339814 1.08877945 0.0339814 2.19955444 0.06864929 C3.73118682 0.11854882 5.26266167 0.17350434 6.79394531 0.2331543 C9.14623702 0.32413364 11.49862079 0.3987094 13.8515625 0.47070312 C15.33857462 0.52117359 16.82555555 0.57257375 18.3125 0.625 C19.3733934 0.6594799 19.3733934 0.6594799 20.45571899 0.69465637 C25.40719986 0.89548111 25.40719986 0.89548111 26.5234375 2.01171875 C26.79923401 3.62308243 27.01495845 5.24477154 27.2064209 6.86831665 C27.33256271 7.91975861 27.45870453 8.97120056 27.58866882 10.05450439 C27.72376358 11.21810486 27.85885834 12.38170532 27.99804688 13.58056641 C28.14289017 14.79841827 28.28773346 16.01627014 28.43696594 17.27102661 C28.83470082 20.62221838 29.22857522 23.97382319 29.62083626 27.32565737 C30.03223876 30.83282949 30.44867292 34.33940378 30.86462402 37.84603882 C31.6530391 44.49901069 32.4371665 51.15248033 33.21965361 57.80615175 C34.36594909 67.55184643 35.51834011 77.29682063 36.67108917 87.04175377 C36.84147712 88.48221199 37.0118644 89.92267028 37.18225098 91.36312866 C37.26550141 92.0668499 37.34875184 92.77057114 37.43452501 93.49561727 C37.92810117 97.66911192 38.42035054 101.84276036 38.9114151 106.01655126 C39.28999394 109.233268 39.66953744 112.44987103 40.04882812 115.66650391 C40.18392288 116.81795898 40.31901764 117.96941406 40.45820618 119.15576172 C40.95621109 123.37362538 41.45990516 127.58178316 42.08081055 131.78356934 C42.59289318 135.51827019 42.85942967 139.24692316 43.08007812 143.00732422 C43.12738571 143.77417542 43.1746933 144.54102661 43.22343445 145.33111572 C43.3250773 146.98480537 43.42541941 148.63857539 43.52458191 150.29241562 C43.68195983 152.91679886 43.84281133 155.54094964 44.0045166 158.16506958 C44.34731609 163.73876195 44.68550719 169.3127294 45.0234375 174.88671875 C45.41541269 181.34323934 45.80930594 187.7996364 46.20658875 194.25583267 C46.36410477 196.82855583 46.51886843 199.40143454 46.67346191 201.97433472 C46.77111719 203.56867209 46.86888949 205.16300231 46.96679688 206.75732422 C47.00838425 207.4620285 47.04997162 208.16673279 47.09281921 208.89279175 C47.40751057 213.95320686 47.92602999 218.97718119 48.5234375 224.01171875 C50.1734375 224.34171875 51.8234375 224.67171875 53.5234375 225.01171875 C53.54751175 224.39480667 53.571586 223.77789459 53.59638977 223.14228821 C53.85195015 216.6170848 54.11536992 210.09222791 54.38140869 203.56744385 C54.51246024 200.28653705 54.63490787 197.00543031 54.75537109 193.72412109 C56.49182288 148.23742422 62.02328518 103.24954547 67.65893555 58.11010742 C67.81513178 56.85852876 67.97132801 55.60695009 68.13225746 54.3174448 C68.87419383 48.38073671 69.6210223 42.44472153 70.37792969 36.50990295 C70.64859366 34.37483734 70.91871631 32.23970301 71.18823242 30.10449219 C71.31433081 29.10715529 71.44042919 28.1098184 71.57034874 27.08225918 C72.3374621 20.88655237 72.93096306 14.72613167 73.2155304 8.48736572 C73.5234375 6.01171875 73.5234375 6.01171875 75.5234375 1.01171875 C87.4034375 1.01171875 99.2834375 1.01171875 111.5234375 1.01171875 C112.67116987 5.60264824 112.03781319 9.08822528 111.23046875 13.64086914 C110.94147127 15.3652276 110.65457088 17.08993867 110.36962891 18.81497192 C110.15285492 20.12254393 110.15285492 20.12254393 109.93170166 21.45653152 C109.32784313 25.23587771 108.82560964 29.02496023 108.34765625 32.82202148 C108.25569631 33.55134164 108.16373636 34.28066179 108.06898975 35.03208256 C107.78076516 37.33622331 107.495878 39.64076354 107.2109375 41.9453125 C106.99907438 43.63859502 106.7868804 45.33183618 106.5743866 47.02503967 C106.12291305 50.62572011 105.67302475 54.22659316 105.22445679 57.82763672 C104.01614908 67.52417072 102.79552705 77.21915872 101.57421875 86.9140625 C101.4489361 87.90910671 101.32365345 88.90415092 101.19457436 89.92934799 C98.55154148 110.90925912 95.81988986 131.87720082 93.06206512 152.84229279 C92.48124678 157.25792818 91.90105907 161.67364645 91.32080078 166.08935547 C91.15230055 167.37157927 91.15230055 167.37157927 90.98039627 168.67970657 C90.75694821 170.38007768 90.53350733 172.08044973 90.31007385 173.78082275 C90.09160655 175.44332242 89.87311119 177.10581839 89.65458679 178.76831055 C87.84378728 192.54575548 86.04506534 206.32468196 84.27871704 220.10791016 C84.030715 222.04240966 83.7820293 223.97682168 83.53256226 225.91113281 C83.20189564 228.47695042 82.87351186 231.04304151 82.546875 233.609375 C82.45024063 234.36582306 82.35360626 235.12227112 82.25404358 235.90164185 C81.62578207 240.91887864 81.15229267 245.93080662 80.85400391 250.97827148 C80.5234375 253.01171875 80.5234375 253.01171875 78.5234375 256.01171875 C76.16368103 256.37921143 76.16368103 256.37921143 73.17163086 256.36816406 C71.49495583 256.37266571 71.49495583 256.37266571 69.78440857 256.3772583 C67.96720055 256.3587381 67.96720055 256.3587381 66.11328125 256.33984375 C64.8755043 256.33797058 63.63772736 256.33609741 62.36244202 256.33416748 C59.06975228 256.32570769 55.77749661 256.30370231 52.48492432 256.27600098 C49.12993757 256.25232657 45.77498727 256.2510147 42.41992188 256.24609375 C39.88020353 256.23692404 37.34048918 256.22654838 34.80078125 256.21484375 C33.587285 256.21059387 32.37378876 256.20634399 31.1235199 256.20196533 C29.4515731 256.18755402 29.4515731 256.18755402 27.74584961 256.17285156 C26.75926865 256.16602356 25.77268768 256.15919556 24.75621033 256.15216064 C22.5234375 256.01171875 22.5234375 256.01171875 21.5234375 255.01171875 C21.14915473 252.77267059 20.83607156 250.52338808 20.54588318 248.27189636 C20.45266802 247.5579187 20.35945287 246.84394104 20.26341301 246.10832769 C19.94944732 243.69536772 19.64163529 241.28166147 19.33374023 238.86791992 C19.11049326 237.14243859 18.88686658 235.41700634 18.66288757 233.69161987 C18.17858123 229.95428643 17.69701899 226.21661287 17.21752739 222.47865868 C16.45071726 216.50088033 15.67799781 210.52387471 14.90455627 204.54695129 C13.67123786 195.01053812 12.44208338 185.47359332 11.21457106 175.93643123 C9.05041345 159.12311021 6.87897472 142.3107283 4.70687068 125.49843228 C4.04774165 120.39624612 3.38909587 115.29399842 2.73148727 110.19161606 C0.18323794 90.41976364 -2.3723931 70.64941149 -5.03857422 50.89306641 C-5.23356108 49.44579944 -5.42854151 47.99853161 -5.62351513 46.55126286 C-6.4956978 40.08347546 -7.37491235 33.61672906 -8.26527405 27.15141296 C-8.56490259 24.94641642 -8.86442498 22.74140544 -9.16381836 20.53637695 C-9.29927252 19.57100573 -9.43472668 18.6056345 -9.57428551 17.6110096 C-10.28074489 12.37033443 -10.88744931 7.2970048 -10.4765625 2.01171875 C-6.80974641 -0.43282531 -4.21746394 -0.17428061 0 0 Z " fill="#FE95D5" transform="translate(199.4765625,132.98828125)"/>
<path d="M0 0 C0.33 0 0.66 0 1 0 C1.05413245 2.89608593 1.09373641 5.79115195 1.125 8.6875 C1.15013672 9.91243164 1.15013672 9.91243164 1.17578125 11.16210938 C1.2114802 15.57092929 1.07580814 18.98731576 -1 23 C-1.33 23 -1.66 23 -2 23 C-1.85775413 20.47891897 -1.71129879 17.95819597 -1.5625 15.4375 C-1.52318359 14.73302734 -1.48386719 14.02855469 -1.44335938 13.30273438 C-1.17481721 8.8201459 -0.69383803 4.43706503 0 0 Z " fill="#FD7BCF" transform="translate(268,187)"/>
<path d="M0 0 C0.33 0 0.66 0 1 0 C0.67 4.29 0.34 8.58 0 13 C-2.67927341 8.98108988 -2.15601248 6.75838077 -2 2 C-1.34 2 -0.68 2 0 2 C0 1.34 0 0.68 0 0 Z " fill="#FE83CF" transform="translate(300,214)"/>
<path d="M0 0 C0.33 0 0.66 0 1 0 C1.25028811 1.58013217 1.47440946 3.16442306 1.6875 4.75 C1.87892578 6.07257813 1.87892578 6.07257813 2.07421875 7.421875 C2 10 2 10 -1 14 C-0.67 9.38 -0.34 4.76 0 0 Z " fill="#FE7ACC" transform="translate(261,244)"/>
</svg>
